<svg width="172" height="58" viewBox="0 0 172 58" fill="none" xmlns="http://www.w3.org/2000/svg">
<path fill-rule="evenodd" clip-rule="evenodd" d="M24.69 50.9759C24.6836 54.9998 23.0804 55.3736 19.992 55.5311V58H39.0081V55.5311C35.9193 55.3736 34.3866 54.9998 34.3805 50.9759V21.7365C30.1971 23.0751 25.6107 24.006 20.6924 24.5988V27.187C22.5069 27.2322 24.5289 27.7662 24.69 30.256L24.69 50.9759ZM29.5382 0H29.462C21.3327 0.010486 13.9718 3.35588 8.64148 8.75738C3.30269 14.1674 0 21.641 0 29.8937C0 38.1469 3.30269 45.6207 8.64148 51.0307C11.1589 53.5814 14.1293 55.6734 17.4194 57.1723V55.6264C14.5089 54.2203 11.8737 52.3228 9.61979 50.0393C4.53141 44.8826 1.38382 37.7597 1.38382 29.8938C1.38382 22.0284 4.53141 14.9051 9.61979 9.74879C14.7087 4.59253 21.7381 1.40245 29.5 1.40245C37.2618 1.40245 44.2914 4.59253 49.3798 9.74879C54.4687 14.905 57.6163 22.0284 57.6163 29.8938C57.6163 37.7597 54.4687 44.8827 49.3798 50.0393C47.1259 52.3229 44.4911 54.2203 41.5807 55.6264V57.1723C44.8708 55.6734 47.8411 53.5814 50.3586 51.0307C55.6974 45.6207 59 38.147 59 29.8937C59 21.641 55.6974 14.1674 50.3586 8.75738C45.0282 3.3555 37.6676 0.0104836 29.5382 0ZM36.8183 9.29525C39.8391 10.3973 42.5487 12.1624 44.7739 14.4167C48.6811 18.3766 51.0986 23.8489 51.0986 29.8937C51.0986 35.9392 48.6811 41.411 44.7739 45.3713C42.5771 47.5969 39.9088 49.3451 36.9347 50.4502V48.9517C39.5261 47.9116 41.8564 46.344 43.7951 44.3796C47.4554 40.6702 49.7201 35.5484 49.7201 29.8937C49.7201 24.2397 47.4554 19.1178 43.7951 15.4081C41.8273 13.4145 39.4565 11.8294 36.8183 10.7898V9.29525ZM22.1823 10.7898C19.5436 11.8294 17.1729 13.4145 15.2051 15.4081C11.5446 19.1178 9.28004 24.2397 9.28004 29.8937C9.28004 35.5484 11.5446 40.6703 15.2051 44.3796C17.1437 46.344 19.4736 47.9116 22.0659 48.9517V50.4502C19.0905 49.3456 16.4227 47.5969 14.2267 45.3713C10.319 41.4114 7.90145 35.9388 7.90145 29.8937C7.90145 23.8493 10.319 18.3765 14.2267 14.4167C16.4514 12.1624 19.1606 10.3973 22.1823 9.29527V10.7898ZM35.3301 17.3257C36.771 18.0137 38.0753 18.9485 39.1885 20.0766C41.6679 22.589 43.2019 26.0606 43.2019 29.8937C43.2019 33.7275 41.6679 37.1986 39.1885 39.7116C38.5052 40.4039 37.7493 41.0232 36.9346 41.5576V39.846C37.3847 39.5 37.8111 39.124 38.2094 38.7201C40.4392 36.4611 41.8181 33.3402 41.8181 29.8938C41.8181 26.448 40.4391 23.3271 38.2094 21.0679C37.0923 19.9356 35.7609 19.0195 34.2823 18.3876L35.3301 17.3257ZM25.0094 18.2674C23.4144 18.9006 21.9808 19.8615 20.7903 21.0679C18.5614 23.3271 17.1816 26.448 17.1816 29.8938C17.1816 33.3402 18.5614 36.4611 20.7903 38.7201C21.1889 39.124 21.6153 39.5 22.0659 39.846V41.5576C21.2507 41.0232 20.4948 40.4039 19.8116 39.7116C17.3318 37.1987 15.7977 33.7271 15.7977 29.8937C15.7977 26.0606 17.3318 22.5893 19.8116 20.0766C20.9969 18.8754 22.3982 17.8931 23.9516 17.195L25.0094 18.2674ZM29.5001 6.20966C32.5145 6.20966 34.9595 8.68682 34.9595 11.7419C34.9595 14.7971 32.5145 17.2747 29.5001 17.2747C26.4855 17.2747 24.0406 14.7971 24.0406 11.7419C24.0406 8.68683 26.4855 6.20966 29.5001 6.20966Z" fill="#E7363D"/>
<path d="M72.054 16.789V15.628H77.355V16.789H75.357V22H74.052V16.789H72.054ZM81.8222 15.628H83.2892L81.6242 19.534C81.5582 19.69 81.4862 19.855 81.4082 20.029C81.3362 20.203 81.2552 20.377 81.1652 20.551C81.0752 20.725 80.9762 20.893 80.8682 21.055C80.7662 21.211 80.6522 21.349 80.5262 21.469C80.3162 21.661 80.0822 21.802 79.8242 21.892C79.5722 21.976 79.2722 22.012 78.9242 22H78.5012V20.848H78.7082C78.8102 20.848 78.9152 20.845 79.0232 20.839C79.1312 20.827 79.2392 20.797 79.3472 20.749C79.4552 20.701 79.5602 20.629 79.6622 20.533C79.7702 20.437 79.8692 20.299 79.9592 20.119L77.5202 15.628H79.0322L80.6252 18.742L81.8222 15.628ZM86.2939 15.628C86.6779 15.628 87.0259 15.67 87.3379 15.754C87.6499 15.832 87.9139 15.961 88.1299 16.141C88.3519 16.315 88.5199 16.546 88.6339 16.834C88.7539 17.116 88.8109 17.464 88.8049 17.878C88.7989 18.238 88.7359 18.559 88.6159 18.841C88.4959 19.117 88.3279 19.351 88.1119 19.543C87.9019 19.729 87.6469 19.873 87.3469 19.975C87.0529 20.071 86.7319 20.119 86.3839 20.119H85.1509V22H83.8459V15.628H86.2939ZM86.3119 18.967C86.4739 18.967 86.6269 18.946 86.7709 18.904C86.9149 18.862 87.0409 18.796 87.1489 18.706C87.2569 18.616 87.3439 18.505 87.4099 18.373C87.4759 18.241 87.5119 18.085 87.5179 17.905C87.5299 17.497 87.4219 17.209 87.1939 17.041C86.9659 16.873 86.6689 16.789 86.3029 16.789H85.1509V18.967H86.3119ZM91.0835 19.741L94.1975 15.628H95.2505V22H93.9455V17.923L90.8315 22H89.7785V15.628H91.0835V19.741ZM97.5888 18.796C97.5888 19.066 97.6218 19.327 97.6878 19.579C97.7598 19.831 97.8648 20.053 98.0028 20.245C98.1468 20.437 98.3268 20.593 98.5428 20.713C98.7648 20.827 99.0288 20.884 99.3348 20.884C99.7188 20.884 100.034 20.8 100.28 20.632C100.532 20.458 100.688 20.218 100.748 19.912H102.008C101.978 20.266 101.885 20.578 101.729 20.848C101.573 21.112 101.372 21.334 101.126 21.514C100.88 21.694 100.601 21.829 100.289 21.919C99.9768 22.009 99.6528 22.054 99.3168 22.054C98.8188 22.054 98.3778 21.973 97.9938 21.811C97.6158 21.649 97.2948 21.424 97.0308 21.136C96.7728 20.848 96.5778 20.506 96.4458 20.11C96.3138 19.714 96.2478 19.279 96.2478 18.805C96.2478 18.343 96.3138 17.914 96.4458 17.518C96.5838 17.116 96.7848 16.771 97.0488 16.483C97.3128 16.189 97.6338 15.961 98.0118 15.799C98.3958 15.631 98.8368 15.547 99.3348 15.547C99.6828 15.547 100.01 15.589 100.316 15.673C100.622 15.757 100.895 15.886 101.135 16.06C101.375 16.234 101.57 16.459 101.72 16.735C101.876 17.005 101.972 17.329 102.008 17.707H100.748C100.682 17.401 100.526 17.158 100.28 16.978C100.034 16.798 99.7188 16.708 99.3348 16.708C99.0288 16.708 98.7648 16.765 98.5428 16.879C98.3268 16.993 98.1468 17.149 98.0028 17.347C97.8648 17.539 97.7598 17.761 97.6878 18.013C97.6218 18.265 97.5888 18.526 97.5888 18.796ZM102.297 16.789V15.628H107.598V16.789H105.6V22H104.295V16.789H102.297ZM109.138 18.796C109.138 19.066 109.171 19.327 109.237 19.579C109.309 19.831 109.414 20.053 109.552 20.245C109.696 20.437 109.876 20.593 110.092 20.713C110.314 20.827 110.578 20.884 110.884 20.884C111.268 20.884 111.583 20.8 111.829 20.632C112.081 20.458 112.237 20.218 112.297 19.912H113.557C113.527 20.266 113.434 20.578 113.278 20.848C113.122 21.112 112.921 21.334 112.675 21.514C112.429 21.694 112.15 21.829 111.838 21.919C111.526 22.009 111.202 22.054 110.866 22.054C110.368 22.054 109.927 21.973 109.543 21.811C109.165 21.649 108.844 21.424 108.58 21.136C108.322 20.848 108.127 20.506 107.995 20.11C107.863 19.714 107.797 19.279 107.797 18.805C107.797 18.343 107.863 17.914 107.995 17.518C108.133 17.116 108.334 16.771 108.598 16.483C108.862 16.189 109.183 15.961 109.561 15.799C109.945 15.631 110.386 15.547 110.884 15.547C111.232 15.547 111.559 15.589 111.865 15.673C112.171 15.757 112.444 15.886 112.684 16.06C112.924 16.234 113.119 16.459 113.269 16.735C113.425 17.005 113.521 17.329 113.557 17.707H112.297C112.231 17.401 112.075 17.158 111.829 16.978C111.583 16.798 111.268 16.708 110.884 16.708C110.578 16.708 110.314 16.765 110.092 16.879C109.876 16.993 109.696 17.149 109.552 17.347C109.414 17.539 109.309 17.761 109.237 18.013C109.171 18.265 109.138 18.526 109.138 18.796ZM115.86 19.408V22H114.555V15.628H115.86V18.256H116.535L118.389 15.628H119.901L117.651 18.652L119.928 22H118.407L116.661 19.408H115.86ZM123.155 15.547C123.641 15.547 124.079 15.625 124.469 15.781C124.859 15.937 125.189 16.159 125.459 16.447C125.729 16.729 125.936 17.068 126.08 17.464C126.224 17.86 126.296 18.298 126.296 18.778C126.296 19.246 126.224 19.681 126.08 20.083C125.936 20.485 125.729 20.833 125.459 21.127C125.189 21.421 124.856 21.652 124.46 21.82C124.07 21.982 123.626 22.06 123.128 22.054C122.63 22.054 122.186 21.973 121.796 21.811C121.412 21.643 121.085 21.415 120.815 21.127C120.551 20.839 120.347 20.497 120.203 20.101C120.065 19.705 119.996 19.273 119.996 18.805C119.996 18.325 120.068 17.887 120.212 17.491C120.362 17.089 120.572 16.744 120.842 16.456C121.118 16.168 121.451 15.946 121.841 15.79C122.231 15.628 122.669 15.547 123.155 15.547ZM121.337 18.787C121.337 19.063 121.373 19.327 121.445 19.579C121.523 19.825 121.634 20.044 121.778 20.236C121.928 20.428 122.117 20.584 122.345 20.704C122.573 20.818 122.84 20.878 123.146 20.884C123.44 20.89 123.701 20.839 123.929 20.731C124.157 20.617 124.346 20.464 124.496 20.272C124.646 20.074 124.76 19.849 124.838 19.597C124.916 19.339 124.955 19.072 124.955 18.796C124.955 18.526 124.916 18.265 124.838 18.013C124.766 17.761 124.655 17.539 124.505 17.347C124.361 17.149 124.175 16.993 123.947 16.879C123.719 16.765 123.452 16.708 123.146 16.708C122.846 16.708 122.582 16.765 122.354 16.879C122.126 16.993 121.937 17.146 121.787 17.338C121.637 17.53 121.523 17.752 121.445 18.004C121.373 18.25 121.337 18.511 121.337 18.787ZM73.98 30.741L77.094 26.628H78.147V33H76.842V28.923L73.728 33H72.675V26.628H73.98V30.741ZM80.8003 29.274H83.4913V26.628H84.7963V33H83.4913V30.435H80.8003V33H79.4953V26.628H80.8003V29.274ZM88.7046 27.267V26.34H90.0096V27.267H90.3336C90.7176 27.267 91.0686 27.321 91.3866 27.429C91.7106 27.531 91.9836 27.684 92.2056 27.888C92.4336 28.092 92.6076 28.347 92.7276 28.653C92.8536 28.953 92.9166 29.298 92.9166 29.688C92.9106 30.492 92.6856 31.104 92.2416 31.524C91.7976 31.938 91.1766 32.148 90.3786 32.154H90.0096V33.153H88.7046V32.154H88.3806C87.9906 32.154 87.6366 32.103 87.3186 32.001C87.0006 31.893 86.7276 31.737 86.4996 31.533C86.2776 31.329 86.1036 31.077 85.9776 30.777C85.8576 30.471 85.7976 30.123 85.7976 29.733C85.8036 28.929 86.0286 28.32 86.4726 27.906C86.9166 27.486 87.5376 27.273 88.3356 27.267H88.7046ZM90.0096 28.365V31.047H90.3876C90.8256 31.047 91.1466 30.921 91.3506 30.669C91.5546 30.417 91.6506 30.081 91.6386 29.661C91.6266 29.271 91.5066 28.959 91.2786 28.725C91.0566 28.485 90.7476 28.365 90.3516 28.365H90.0096ZM88.7046 31.047V28.365H88.3266C87.8886 28.365 87.5676 28.494 87.3636 28.752C87.1596 29.004 87.0636 29.34 87.0756 29.76C87.0876 30.15 87.2046 30.462 87.4266 30.696C87.6546 30.93 87.9666 31.047 88.3626 31.047H88.7046ZM96.8141 26.547C97.3001 26.547 97.7381 26.625 98.1281 26.781C98.5181 26.937 98.8481 27.159 99.1181 27.447C99.3881 27.729 99.5951 28.068 99.7391 28.464C99.8831 28.86 99.9551 29.298 99.9551 29.778C99.9551 30.246 99.8831 30.681 99.7391 31.083C99.5951 31.485 99.3881 31.833 99.1181 32.127C98.8481 32.421 98.5151 32.652 98.1191 32.82C97.7291 32.982 97.2851 33.06 96.7871 33.054C96.2891 33.054 95.8451 32.973 95.4551 32.811C95.0711 32.643 94.7441 32.415 94.4741 32.127C94.2101 31.839 94.0061 31.497 93.8621 31.101C93.7241 30.705 93.6551 30.273 93.6551 29.805C93.6551 29.325 93.7271 28.887 93.8711 28.491C94.0211 28.089 94.2311 27.744 94.5011 27.456C94.7771 27.168 95.1101 26.946 95.5001 26.79C95.8901 26.628 96.3281 26.547 96.8141 26.547ZM94.9961 29.787C94.9961 30.063 95.0321 30.327 95.1041 30.579C95.1821 30.825 95.2931 31.044 95.4371 31.236C95.5871 31.428 95.7761 31.584 96.0041 31.704C96.2321 31.818 96.4991 31.878 96.8051 31.884C97.0991 31.89 97.3601 31.839 97.5881 31.731C97.8161 31.617 98.0051 31.464 98.1551 31.272C98.3051 31.074 98.4191 30.849 98.4971 30.597C98.5751 30.339 98.6141 30.072 98.6141 29.796C98.6141 29.526 98.5751 29.265 98.4971 29.013C98.4251 28.761 98.3141 28.539 98.1641 28.347C98.0201 28.149 97.8341 27.993 97.6061 27.879C97.3781 27.765 97.1111 27.708 96.8051 27.708C96.5051 27.708 96.2411 27.765 96.0131 27.879C95.7851 27.993 95.5961 28.146 95.4461 28.338C95.2961 28.53 95.1821 28.752 95.1041 29.004C95.0321 29.25 94.9961 29.511 94.9961 29.787ZM103.406 26.628C103.79 26.628 104.138 26.67 104.45 26.754C104.762 26.832 105.026 26.961 105.242 27.141C105.464 27.315 105.632 27.546 105.746 27.834C105.866 28.116 105.923 28.464 105.917 28.878C105.911 29.238 105.848 29.559 105.728 29.841C105.608 30.117 105.44 30.351 105.224 30.543C105.014 30.729 104.759 30.873 104.459 30.975C104.165 31.071 103.844 31.119 103.496 31.119H102.263V33H100.958V26.628H103.406ZM103.424 29.967C103.586 29.967 103.739 29.946 103.883 29.904C104.027 29.862 104.153 29.796 104.261 29.706C104.369 29.616 104.456 29.505 104.522 29.373C104.588 29.241 104.624 29.085 104.63 28.905C104.642 28.497 104.534 28.209 104.306 28.041C104.078 27.873 103.781 27.789 103.415 27.789H102.263V29.967H103.424ZM108.313 26.628L110.221 29.625L112.102 26.628H113.497V33H112.192V28.599L110.491 31.353H109.906L108.187 28.599V33H106.891V26.628H108.313ZM116.051 31.785L115.592 33H114.17L116.636 26.628H118.112L120.542 33H119.111L118.67 31.785H116.051ZM116.429 30.633H118.283L117.365 28.014L116.429 30.633ZM125.114 31.848V26.628H126.419V31.848H127.193V34.611H125.906V33H121.217V26.628H122.522V31.848H125.114ZM129.263 30.741L132.377 26.628H133.43V33H132.125V28.923L129.011 33H127.958V26.628H129.263V30.741ZM137.587 26.547C138.073 26.547 138.511 26.625 138.901 26.781C139.291 26.937 139.621 27.159 139.891 27.447C140.161 27.729 140.368 28.068 140.512 28.464C140.656 28.86 140.728 29.298 140.728 29.778C140.728 30.246 140.656 30.681 140.512 31.083C140.368 31.485 140.161 31.833 139.891 32.127C139.621 32.421 139.288 32.652 138.892 32.82C138.502 32.982 138.058 33.06 137.56 33.054C137.062 33.054 136.618 32.973 136.228 32.811C135.844 32.643 135.517 32.415 135.247 32.127C134.983 31.839 134.779 31.497 134.635 31.101C134.497 30.705 134.428 30.273 134.428 29.805C134.428 29.325 134.5 28.887 134.644 28.491C134.794 28.089 135.004 27.744 135.274 27.456C135.55 27.168 135.883 26.946 136.273 26.79C136.663 26.628 137.101 26.547 137.587 26.547ZM135.769 29.787C135.769 30.063 135.805 30.327 135.877 30.579C135.955 30.825 136.066 31.044 136.21 31.236C136.36 31.428 136.549 31.584 136.777 31.704C137.005 31.818 137.272 31.878 137.578 31.884C137.872 31.89 138.133 31.839 138.361 31.731C138.589 31.617 138.778 31.464 138.928 31.272C139.078 31.074 139.192 30.849 139.27 30.597C139.348 30.339 139.387 30.072 139.387 29.796C139.387 29.526 139.348 29.265 139.27 29.013C139.198 28.761 139.087 28.539 138.937 28.347C138.793 28.149 138.607 27.993 138.379 27.879C138.151 27.765 137.884 27.708 137.578 27.708C137.278 27.708 137.014 27.765 136.786 27.879C136.558 27.993 136.369 28.146 136.219 28.338C136.069 28.53 135.955 28.752 135.877 29.004C135.805 29.25 135.769 29.511 135.769 29.787ZM143.036 29.274H145.727V26.628H147.032V33H145.727V30.435H143.036V33H141.731V26.628H143.036V29.274ZM149.689 29.274H152.38V26.628H153.685V33H152.38V30.435H149.689V33H148.384V26.628H149.689V29.274ZM155.037 33V26.628H156.342V28.923H157.566C157.986 28.923 158.355 28.974 158.673 29.076C158.991 29.178 159.246 29.343 159.438 29.571C159.57 29.733 159.672 29.922 159.744 30.138C159.822 30.354 159.861 30.612 159.861 30.912C159.855 31.338 159.774 31.692 159.618 31.974C159.462 32.256 159.249 32.475 158.979 32.631C158.751 32.769 158.49 32.865 158.196 32.919C157.902 32.973 157.584 33 157.242 33H155.037ZM160.662 26.628H161.967V33H160.662V26.628ZM156.342 31.848H157.206C157.374 31.848 157.539 31.839 157.701 31.821C157.869 31.797 158.016 31.752 158.142 31.686C158.274 31.614 158.379 31.518 158.457 31.398C158.541 31.272 158.583 31.107 158.583 30.903C158.583 30.723 158.547 30.579 158.475 30.471C158.409 30.357 158.319 30.273 158.205 30.219C158.097 30.159 157.968 30.12 157.818 30.102C157.674 30.084 157.524 30.075 157.368 30.075L156.342 30.084V31.848ZM166.134 26.205C165.648 26.205 165.246 26.085 164.928 25.845C164.61 25.605 164.424 25.242 164.37 24.756H165.468C165.552 25.104 165.777 25.278 166.143 25.278C166.317 25.278 166.461 25.233 166.575 25.143C166.695 25.053 166.77 24.924 166.8 24.756H167.916C167.85 25.242 167.655 25.605 167.331 25.845C167.013 26.085 166.614 26.205 166.134 26.205ZM164.622 30.741L167.736 26.628H168.789V33H167.484V28.923L164.37 33H163.317V26.628H164.622V30.741ZM76.572 42.848V37.628H77.877V42.848H78.651V45.611H77.364V44H72.675V37.628H73.98V42.848H76.572ZM83.9702 37.628V38.789H80.7212V40.274H83.5562V41.435H80.7212V42.848H83.9702V44H79.4162V37.628H83.9702ZM86.2759 40.274H88.9669V37.628H90.2719V44H88.9669V41.435H86.2759V44H84.9709V37.628H86.2759V40.274ZM91.0032 38.789V37.628H96.3042V38.789H94.3062V44H93.0012V38.789H91.0032ZM99.4775 37.628C99.8615 37.628 100.209 37.67 100.521 37.754C100.833 37.832 101.097 37.961 101.313 38.141C101.535 38.315 101.703 38.546 101.817 38.834C101.937 39.116 101.994 39.464 101.988 39.878C101.982 40.238 101.919 40.559 101.799 40.841C101.679 41.117 101.511 41.351 101.295 41.543C101.085 41.729 100.83 41.873 100.53 41.975C100.236 42.071 99.9155 42.119 99.5675 42.119H98.3345V44H97.0295V37.628H99.4775ZM99.4955 40.967C99.6575 40.967 99.8105 40.946 99.9545 40.904C100.098 40.862 100.224 40.796 100.332 40.706C100.44 40.616 100.527 40.505 100.593 40.373C100.659 40.241 100.695 40.085 100.701 39.905C100.713 39.497 100.605 39.209 100.377 39.041C100.149 38.873 99.8525 38.789 99.4865 38.789H98.3345V40.967H99.4955Z" fill="#E7363D"/>
</svg>
