<svg width="20" height="20" viewBox="0 0 20 20" fill="none" xmlns="http://www.w3.org/2000/svg">
<path d="M8.33341 11.3333L13.2501 6.41667C13.4029 6.26389 13.5973 6.1875 13.8334 6.1875C14.0695 6.1875 14.264 6.26389 14.4167 6.41667C14.5695 6.56944 14.6459 6.76389 14.6459 7C14.6459 7.23611 14.5695 7.43056 14.4167 7.58333L8.91675 13.0833C8.75008 13.25 8.55564 13.3333 8.33341 13.3333C8.11119 13.3333 7.91675 13.25 7.75008 13.0833L5.58341 10.9167C5.43064 10.7639 5.35425 10.5694 5.35425 10.3333C5.35425 10.0972 5.43064 9.90278 5.58341 9.75C5.73619 9.59722 5.93064 9.52083 6.16675 9.52083C6.40286 9.52083 6.5973 9.59722 6.75008 9.75L8.33341 11.3333Z" fill="white"/>
</svg>
