<svg width="34" height="34" viewBox="0 0 34 34" fill="none" xmlns="http://www.w3.org/2000/svg">
<g clip-path="url(#clip0_400_9603)">
<path d="M24.076 11.4594L23.7122 10.262C23.2501 8.90188 21.7729 8.17393 20.4127 8.63604C20.0352 8.76431 19.6922 8.97766 19.4103 9.25959C19.1284 9.54153 18.915 9.8845 18.7867 10.262L18.4229 11.4594C18.1168 12.4692 18.0526 13.5368 18.2354 14.5761C18.3177 15.008 18.4961 15.4159 18.7574 15.7695C19.0187 16.1231 19.3563 16.4134 19.745 16.6189L19.3375 25.7269C19.3106 25.9783 19.337 26.2325 19.4151 26.4729C19.4933 26.7134 19.6213 26.9346 19.7909 27.1221C20.5285 27.9289 21.7805 27.985 22.5873 27.2474C22.6309 27.2075 22.6727 27.1657 22.7126 27.1221C22.8785 26.9398 23.0044 26.725 23.0825 26.4913C23.1606 26.2576 23.189 26.0102 23.1659 25.7649L22.7562 16.6178C23.1444 16.4122 23.4815 16.1219 23.7424 15.7685C24.0033 15.4151 24.1814 15.0076 24.2636 14.5761C24.4464 13.5368 24.3821 12.4692 24.076 11.4594ZM23.1472 14.3789C23.087 14.6877 22.9466 14.9753 22.7403 15.2129C22.5339 15.4505 22.2688 15.6297 21.9714 15.7326C21.8594 15.7747 21.7637 15.8512 21.6978 15.951C21.632 16.0509 21.5994 16.169 21.6048 16.2885L22.0354 25.8544C22.0453 25.9472 22.0352 26.0409 22.0059 26.1295C21.9765 26.218 21.9287 26.2993 21.8654 26.3678C21.5242 26.7056 20.9747 26.7056 20.6335 26.3678C20.5672 26.2938 20.5179 26.2061 20.4891 26.1109C20.4603 26.0157 20.4527 25.9154 20.4669 25.817L20.8942 16.2885C20.8996 16.169 20.867 16.0509 20.8011 15.951C20.7353 15.8512 20.6395 15.7747 20.5275 15.7326C20.2302 15.6297 19.965 15.4505 19.7587 15.2129C19.5523 14.9753 19.412 14.6877 19.3517 14.3789C19.2001 13.5161 19.2535 12.6298 19.5075 11.7915L19.8713 10.5935C20.1528 9.83242 20.998 9.44362 21.7592 9.72511C21.958 9.79865 22.1386 9.91433 22.2885 10.0642C22.4384 10.2141 22.5541 10.3947 22.6276 10.5935L22.9914 11.7915C23.2452 12.6298 23.2985 13.5161 23.1472 14.3789ZM15.2995 8.50026C15.1492 8.50026 15.0051 8.55996 14.8988 8.66623C14.7925 8.7725 14.7328 8.91663 14.7328 9.06692V13.9323L13.1988 15.4663C13.1427 15.5222 13.0989 15.5893 13.0703 15.6632C13.0417 15.7371 13.029 15.8161 13.0328 15.8953L13.5286 25.8119C13.5345 25.9177 13.5185 26.0236 13.4816 26.1229C13.4448 26.2223 13.3879 26.313 13.3144 26.3894C13.0043 26.7023 12.4991 26.7046 12.1861 26.3943L12.1811 26.3894C12.1077 26.313 12.0508 26.2223 12.0139 26.1229C11.9771 26.0236 11.9611 25.9177 11.9669 25.8119L12.4661 15.8953C12.4701 15.8162 12.4574 15.7371 12.4289 15.6632C12.4004 15.5894 12.3567 15.5223 12.3007 15.4663L10.7661 13.9323V9.06692C10.7661 8.91663 10.7064 8.7725 10.6002 8.66623C10.4939 8.55996 10.3498 8.50026 10.1995 8.50026C10.0492 8.50026 9.90506 8.55996 9.79878 8.66623C9.69251 8.7725 9.63281 8.91663 9.63281 9.06692V14.1669C9.63284 14.3172 9.69257 14.4613 9.79885 14.5676L11.3209 16.0902L10.8375 25.757C10.7861 26.8129 11.6004 27.7106 12.6563 27.762C13.7122 27.8135 14.61 26.9992 14.6614 25.9433C14.6645 25.8812 14.6645 25.8191 14.6614 25.757L14.178 16.0903L15.7001 14.5676C15.8064 14.4614 15.8661 14.3173 15.8661 14.167V9.06699C15.8662 8.99257 15.8515 8.91888 15.823 8.85012C15.7946 8.78136 15.7528 8.71888 15.7002 8.66625C15.6476 8.61363 15.5851 8.57188 15.5163 8.5434C15.4476 8.51492 15.3739 8.50026 15.2995 8.50026Z" fill="#E7363D"/>
<path d="M11.8997 8.5C11.7494 8.5 11.6053 8.5597 11.499 8.66597C11.3927 8.77224 11.333 8.91638 11.333 9.06667V13.6C11.333 13.7503 11.3927 13.8944 11.499 14.0007C11.6053 14.107 11.7494 14.1667 11.8997 14.1667C12.05 14.1667 12.1941 14.107 12.3004 14.0007C12.4066 13.8944 12.4663 13.7503 12.4663 13.6V9.06667C12.4663 8.91638 12.4066 8.77224 12.3004 8.66597C12.1941 8.5597 12.05 8.5 11.8997 8.5ZM13.5997 8.5C13.4494 8.5 13.3053 8.5597 13.199 8.66597C13.0927 8.77224 13.033 8.91638 13.033 9.06667V13.6C13.033 13.7503 13.0927 13.8944 13.199 14.0007C13.3053 14.107 13.4494 14.1667 13.5997 14.1667C13.75 14.1667 13.8941 14.107 14.0004 14.0007C14.1066 13.8944 14.1663 13.7503 14.1663 13.6V9.06667C14.1663 8.91638 14.1066 8.77224 14.0004 8.66597C13.8941 8.5597 13.75 8.5 13.5997 8.5Z" fill="#E7363D"/>
<path d="M17 0C7.61118 0 0 7.61118 0 17C0 26.3888 7.61118 34 17 34C26.3888 34 34 26.3888 34 17C33.9894 7.61558 26.3844 0.010625 17 0ZM17 32.8667C8.23707 32.8667 1.13333 25.7629 1.13333 17C1.13333 8.23707 8.23707 1.13333 17 1.13333C25.7629 1.13333 32.8667 8.23707 32.8667 17C32.8567 25.7588 25.7588 32.8567 17 32.8667Z" fill="#E7363D"/>
<path d="M18.8396 27.6376C18.8322 27.5616 18.8096 27.488 18.773 27.4211C18.7365 27.3541 18.6868 27.2952 18.6269 27.2479C18.5671 27.2007 18.4983 27.1659 18.4247 27.1459C18.3511 27.1258 18.2742 27.1208 18.1986 27.1312L18.2009 27.1306C17.4031 27.2233 16.5972 27.2233 15.7994 27.1306C15.7254 27.1219 15.6505 27.1279 15.5789 27.1482C15.5073 27.1685 15.4404 27.2027 15.3819 27.2488C15.3235 27.295 15.2748 27.3522 15.2385 27.4172C15.2022 27.4821 15.179 27.5536 15.1704 27.6276C15.1617 27.7015 15.1677 27.7764 15.188 27.848C15.2082 27.9197 15.2424 27.9866 15.2886 28.045C15.3347 28.1034 15.3919 28.1522 15.4569 28.1885C15.5219 28.2248 15.5934 28.2479 15.6673 28.2566C16.5521 28.3599 17.4459 28.3599 18.3307 28.2566C18.4803 28.242 18.6179 28.1686 18.7133 28.0525C18.8088 27.9364 18.8542 27.7871 18.8396 27.6376ZM25.6702 9.69831C25.6223 9.6413 25.5638 9.59426 25.4978 9.55988C25.4318 9.52551 25.3596 9.50447 25.2855 9.49797C25.2114 9.49147 25.1367 9.49964 25.0657 9.52201C24.9947 9.54437 24.9289 9.5805 24.8719 9.62833L24.8695 9.63031C24.7546 9.72718 24.6829 9.86572 24.6701 10.0154C24.6574 10.1652 24.7046 10.3138 24.8014 10.4287C28.2181 14.4847 27.9567 20.482 24.2002 24.2254C24.0954 24.3318 24.0369 24.4754 24.0373 24.6247C24.0378 24.7741 24.0972 24.9173 24.2026 25.0231C24.3081 25.1289 24.451 25.1888 24.6004 25.1898C24.7498 25.1908 24.8935 25.1328 25.0004 25.0283C29.1751 20.8695 29.4662 14.2054 25.6702 9.69831ZM13.2029 7.49058L13.2019 7.49051L13.2001 7.49058H13.2029ZM19.6731 5.98381C17.4585 5.45305 15.1359 5.59572 13.0029 6.39351C12.8788 6.44024 12.775 6.52903 12.7096 6.64442C12.6442 6.7598 12.6213 6.89447 12.645 7.02497C12.6686 7.15547 12.7373 7.27354 12.8391 7.3586C12.9408 7.44367 13.0692 7.49035 13.2019 7.49051C13.2696 7.49019 13.3368 7.47774 13.4001 7.45375C15.321 6.73542 17.4126 6.60716 19.4068 7.08541C19.4791 7.1029 19.5542 7.10597 19.6277 7.09445C19.7012 7.08292 19.7717 7.05703 19.8353 7.01825C19.8988 6.97947 19.954 6.92856 19.9979 6.86842C20.0417 6.80829 20.0733 6.74011 20.0907 6.66778C20.1082 6.59545 20.1113 6.52038 20.0998 6.44686C20.0883 6.37334 20.0624 6.30281 20.0236 6.2393C19.9848 6.17579 19.9339 6.12054 19.8738 6.0767C19.8136 6.03286 19.7454 6.0013 19.6731 5.98381ZM9.77458 24.197C8.82876 23.2529 8.07903 22.1309 7.56855 20.8958C7.05807 19.6607 6.79693 18.3368 6.80015 17.0004C6.79453 14.8438 7.47768 12.7418 8.75005 11.0005C8.79476 10.941 8.82733 10.8733 8.84587 10.8012C8.86442 10.7292 8.86859 10.6542 8.85815 10.5805C8.8477 10.5068 8.82285 10.4359 8.785 10.3718C8.74715 10.3077 8.69705 10.2517 8.63757 10.207C8.57696 10.1615 8.50783 10.1286 8.43427 10.1102C8.36071 10.0918 8.28421 10.0884 8.20931 10.1002C8.13441 10.1119 8.06263 10.1386 7.99822 10.1786C7.9338 10.2186 7.87807 10.2711 7.83431 10.333C4.55806 14.8371 5.04015 21.0542 8.97161 24.9994C9.07817 25.1052 9.22229 25.1645 9.37242 25.1642C9.52256 25.164 9.66648 25.1042 9.77268 24.9981C9.87888 24.892 9.93871 24.7481 9.93906 24.598C9.93942 24.4478 9.88028 24.3037 9.77458 24.197Z" fill="#E7363D"/>
</g>
<defs>
<clipPath id="clip0_400_9603">
<rect width="34" height="34" fill="white"/>
</clipPath>
</defs>
</svg>
