<svg width="39" height="31" viewBox="0 0 39 31" fill="none" xmlns="http://www.w3.org/2000/svg">
<g clip-path="url(#clip0_709_1307)">
<path d="M7.09055 30.8458V28.7941C7.09055 28.0074 6.62225 27.4945 5.81955 27.4945C5.41828 27.4945 4.98349 27.6313 4.68246 28.0759C4.44846 27.6997 4.11406 27.4945 3.61239 27.4945C3.27785 27.4945 2.94361 27.5971 2.67594 27.9733V27.5629H1.97363V30.8458H2.67594V29.0333C2.67594 28.4521 2.97697 28.1784 3.44527 28.1784C3.91327 28.1784 4.14758 28.4862 4.14758 29.0333V30.8458H4.84988V29.0333C4.84988 28.4521 5.18413 28.1784 5.61891 28.1784C6.08722 28.1784 6.32122 28.4862 6.32122 29.0333V30.8458H7.09055ZM17.4912 27.5629H16.3543V26.5712H15.652V27.5629H15.0165V28.2125H15.6518V29.7174C15.6518 30.4698 15.9528 30.9142 16.7555 30.9142C17.0566 30.9142 17.3908 30.8117 17.6251 30.6749L17.4243 30.0593C17.2237 30.1961 16.9897 30.2303 16.8224 30.2303C16.488 30.2303 16.3543 30.0252 16.3543 29.6831V28.2125H17.4912V27.5629ZM23.4442 27.4944C23.0429 27.4944 22.7754 27.6997 22.6081 27.9733V27.5629H21.9058V30.8458H22.6081V28.9992C22.6081 28.4521 22.8421 28.1443 23.2769 28.1443C23.4107 28.1443 23.578 28.1786 23.7117 28.2127L23.9124 27.5288C23.7786 27.4945 23.578 27.4945 23.4442 27.4945V27.4944ZM14.448 27.8365C14.1134 27.597 13.6453 27.4945 13.1436 27.4945C12.3411 27.4945 11.8061 27.9049 11.8061 28.5546C11.8061 29.1019 12.2073 29.4095 12.9096 29.5122L13.244 29.5465C13.6119 29.6147 13.8126 29.7174 13.8126 29.8884C13.8126 30.1277 13.5451 30.2987 13.0768 30.2987C12.6086 30.2987 12.2407 30.1277 12.0065 29.9568L11.6721 30.5039C12.0401 30.7774 12.5417 30.9142 13.0432 30.9142C13.9797 30.9142 14.5149 30.4698 14.5149 29.8541C14.5149 29.2728 14.0801 28.9649 13.4111 28.8624L13.0768 28.8282C12.7757 28.7939 12.5417 28.7257 12.5417 28.5205C12.5417 28.2811 12.7757 28.1443 13.1436 28.1443C13.5451 28.1443 13.9463 28.3152 14.147 28.4179L14.448 27.8365ZM33.1093 27.4945C32.7079 27.4945 32.4404 27.6997 32.2731 27.9733V27.5629H31.5708V30.8458H32.2731V28.9992C32.2731 28.4521 32.5073 28.1443 32.9419 28.1443C33.0758 28.1443 33.2431 28.1786 33.3769 28.2127L33.5775 27.5288C33.4437 27.4945 33.2431 27.4945 33.1093 27.4945ZM24.1465 29.2044C24.1465 30.1961 24.8153 30.9142 25.8521 30.9142C26.3203 30.9142 26.6547 30.8117 26.9891 30.5382L26.6547 29.9568C26.3872 30.162 26.1197 30.2645 25.8186 30.2645C25.2501 30.2645 24.8488 29.8541 24.8488 29.2044C24.8488 28.5889 25.2501 28.1784 25.8186 28.1443C26.1197 28.1443 26.3872 28.2468 26.6547 28.4521L26.9891 27.8708C26.6547 27.597 26.3203 27.4945 25.8521 27.4945C24.8153 27.4945 24.1465 28.2127 24.1465 29.2044ZM30.6345 29.2044V27.5629H29.9322V27.9733C29.6981 27.6656 29.3637 27.4945 28.9289 27.4945C28.0259 27.4945 27.3236 28.2127 27.3236 29.2044C27.3236 30.1961 28.0259 30.9142 28.9289 30.9142C29.397 30.9142 29.7316 30.7433 29.9322 30.4355V30.8458H30.6345V29.2044ZM28.0593 29.2044C28.0593 28.623 28.4272 28.1443 29.0291 28.1443C29.5977 28.1443 29.9991 28.5889 29.9991 29.2044C29.9991 29.7857 29.5977 30.2645 29.0291 30.2645C28.4272 30.2302 28.0593 29.7857 28.0593 29.2044ZM19.6652 27.4945C18.7287 27.4945 18.0598 28.1784 18.0598 29.2044C18.0598 30.2303 18.7286 30.9142 19.6985 30.9142C20.1667 30.9142 20.635 30.7774 21.0029 30.4698L20.6683 29.9568C20.4008 30.162 20.0664 30.2987 19.732 30.2987C19.2973 30.2987 18.8625 30.0936 18.7621 29.512H21.1367V29.2386C21.1702 28.1784 20.5683 27.4945 19.6652 27.4945ZM19.6652 28.11C20.0998 28.11 20.401 28.3837 20.4677 28.8967H18.7956C18.8625 28.4521 19.1635 28.11 19.6652 28.11ZM37.089 29.2044V26.2634H36.3867V27.9733C36.1526 27.6656 35.8182 27.4945 35.3834 27.4945C34.4804 27.4945 33.7781 28.2127 33.7781 29.2044C33.7781 30.1961 34.4804 30.9142 35.3834 30.9142C35.8517 30.9142 36.1861 30.7433 36.3867 30.4355V30.8458H37.089V29.2044ZM34.514 29.2044C34.514 28.623 34.8817 28.1443 35.4838 28.1443C36.0523 28.1443 36.4536 28.5889 36.4536 29.2044C36.4536 29.7857 36.0523 30.2645 35.4838 30.2645C34.8817 30.2302 34.514 29.7857 34.514 29.2044ZM11.0367 29.2044V27.5629H10.3344V27.9733C10.1003 27.6656 9.76586 27.4945 9.33107 27.4945C8.42813 27.4945 7.72583 28.2127 7.72583 29.2044C7.72583 30.1961 8.42813 30.9142 9.33107 30.9142C9.79938 30.9142 10.1338 30.7433 10.3344 30.4355V30.8458H11.0367V29.2044ZM8.42813 29.2044C8.42813 28.623 8.79604 28.1443 9.39795 28.1443C9.9665 28.1443 10.3679 28.5889 10.3679 29.2044C10.3679 29.7857 9.9665 30.2645 9.39795 30.2645C8.79604 30.2302 8.42813 29.7857 8.42813 29.2044Z" fill="white"/>
<path d="M14.2129 2.63306H24.7475V21.9887H14.2129V2.63306Z" fill="#FF5F00"/>
<path d="M14.8823 12.3111C14.8823 8.37841 16.6882 4.89021 19.4639 2.63313C17.424 0.991688 14.8489 0 12.0397 0C5.38428 0 0 5.50569 0 12.3111C0 19.1163 5.38428 24.6221 12.0396 24.6221C14.8488 24.6221 17.4239 23.6304 19.4639 21.9888C16.6882 19.766 14.8823 16.2437 14.8823 12.3111Z" fill="#EB001B"/>
<path d="M38.961 12.3111C38.961 19.1163 33.5767 24.6221 26.9214 24.6221C24.1122 24.6221 21.5371 23.6304 19.4971 21.9888C22.3063 19.7319 24.0788 16.2437 24.0788 12.3111C24.0788 8.37841 22.2728 4.89021 19.4971 2.63313C21.537 0.991688 24.1122 0 26.9214 0C33.5767 0 38.961 5.53997 38.961 12.3111Z" fill="#F79E1B"/>
</g>
<defs>
<clipPath id="clip0_709_1307">
<rect width="39" height="31" fill="white"/>
</clipPath>
</defs>
</svg>
