<svg width="74" height="22" viewBox="0 0 74 22" fill="none" xmlns="http://www.w3.org/2000/svg">
<path fill-rule="evenodd" clip-rule="evenodd" d="M11.7572 2.3863C12.339 2.38286 14.068 2.22854 14.8004 4.67802C15.2937 6.32802 16.0795 9.0308 17.1579 12.7863H17.5971C18.7535 8.82698 19.548 6.12421 19.9804 4.67802C20.7204 2.20302 22.5704 2.38635 23.3104 2.38635L29.0196 2.38636V19.9863H23.2006V9.61437H22.8104L19.5665 19.9863H15.1884L11.9446 9.60668H11.5544V19.9863H5.73535V2.38636L11.7572 2.3863ZM37.3757 2.38636V12.766H37.8399L41.7857 4.2309C42.5517 2.53239 44.1841 2.38636 44.1841 2.38636H49.8153V19.9864H43.8747V9.60668H43.4105L39.542 18.1418C38.776 19.8326 37.0662 19.9864 37.0662 19.9864H31.4351V2.38636H37.3757ZM70.3485 10.75C69.5199 13.077 66.9176 14.7436 64.0365 14.7436H57.8067V19.9864H52.1575V10.75H70.3485Z" fill="#0F754E"/>
<path fill-rule="evenodd" clip-rule="evenodd" d="M64.309 2.38635H51.8613C52.1576 6.30471 55.5626 9.65908 59.0876 9.65908H70.7411C71.4136 6.40246 69.0985 2.38635 64.309 2.38635Z" fill="url(#paint0_linear_709_1312)"/>
<defs>
<linearGradient id="paint0_linear_709_1312" x1="1951.27" y1="459.872" x2="51.8613" y2="459.872" gradientUnits="userSpaceOnUse">
<stop stop-color="#1F5CD7"/>
<stop offset="1" stop-color="#02AEFF"/>
</linearGradient>
</defs>
</svg>
