<svg width="24" height="24" viewBox="0 0 24 24" fill="none" xmlns="http://www.w3.org/2000/svg">
<path d="M21 6C21 7.65685 18.7614 9 16 9C13.2386 9 11 7.65685 11 6M21 6C21 4.34315 18.7614 3 16 3C13.2386 3 11 4.34315 11 6M21 6V10M11 6V10M11 10C11 11.657 13.239 13 16 13C18.761 13 21 11.657 21 10M11 10V14M21 10V14M11 14C11 15.657 13.239 17 16 17C18.761 17 21 15.657 21 14M11 14V18C11 19.657 13.239 21 16 21C18.761 21 21 19.657 21 18V14" stroke="#E7363D" stroke-width="1.5" stroke-linecap="round" stroke-linejoin="round"/>
<path d="M6.14514 13.9883H2V12.7969H6.11424C6.44647 12.7969 6.71946 12.7435 6.93322 12.6367C7.14956 12.5299 7.30923 12.3815 7.41225 12.1914C7.51784 12.0013 7.56935 11.7786 7.56678 11.5234C7.56935 11.2734 7.51784 11.0495 7.41225 10.8516C7.30923 10.651 7.15213 10.4935 6.94095 10.3789C6.73234 10.2617 6.46707 10.2031 6.14514 10.2031H4.59216V17H3.1628V9H6.14514C6.75809 9 7.27704 9.11198 7.70199 9.33594C8.12693 9.55729 8.44886 9.85807 8.66777 10.2383C8.88926 10.6159 9 11.0404 9 11.5117C9 12.0013 8.88797 12.4323 8.66391 12.8047C8.43985 13.1745 8.11534 13.4648 7.6904 13.6758C7.26545 13.8841 6.75037 13.9883 6.14514 13.9883ZM6.32671 14.582V15.7734H2V14.582H6.32671Z" fill="#E7363D"/>
</svg>
