<svg width="63" height="20" viewBox="0 0 63 20" fill="none" xmlns="http://www.w3.org/2000/svg">
<g clip-path="url(#clip0_709_1305)">
<path d="M32.5821 6.36821C32.5461 9.14315 35.1077 10.6916 37.0374 11.6123C39.0199 12.5569 39.6858 13.1627 39.6779 14.0075C39.6632 15.3003 38.0965 15.8709 36.6306 15.893C34.0729 15.9318 32.5858 15.2169 31.4035 14.6762L30.4822 18.8976C31.6683 19.4328 33.8647 19.8995 36.1423 19.92C41.4887 19.92 44.9864 17.3359 45.0054 13.3294C45.0263 8.24459 37.8224 7.96315 37.8716 5.69037C37.8886 5.00122 38.5602 4.2658 40.0318 4.07881C40.7603 3.98435 42.7711 3.91206 45.0509 4.94001L45.9457 0.855677C44.7197 0.418568 43.1439 1.33514e-05 41.1821 1.33514e-05C36.1499 1.33514e-05 32.6106 2.61929 32.5821 6.36821ZM54.5437 0.35182C53.5675 0.35182 52.7448 0.90941 52.3776 1.76507L44.7406 19.62H50.083L51.1462 16.7431H57.6745L58.2912 19.62H63L58.891 0.35182H54.5437ZM55.2911 5.55688L56.8329 12.7923H52.6104L55.2911 5.55688ZM26.1046 0.35206L21.8935 19.6198H26.9844L31.1936 0.35158H26.1046M18.5734 0.35158L13.2745 13.4665L11.1311 2.31544C10.8796 1.07062 9.88632 0.35182 8.78333 0.35182H0.121324L0 0.911339C1.77827 1.28917 3.7987 1.89857 5.02277 2.55062C5.77188 2.94893 5.98549 3.29712 6.23159 4.24363L10.2914 19.62H15.6713L23.9193 0.35182L18.5734 0.35158Z" fill="white"/>
</g>
<defs>
<clipPath id="clip0_709_1305">
<rect width="63" height="20" fill="white"/>
</clipPath>
</defs>
</svg>
